<svg xmlns="http://www.w3.org/2000/svg" version="1.1" xmlns:xlink="http://www.w3.org/1999/xlink" xmlns:svgjs="http://svgjs.dev/svgjs" width="500" height="500"><svg xmlns="http://www.w3.org/2000/svg" fill="none" viewBox="0 0 500 500"><path fill="#B04304" d="M295.334 103.333v-40L340.667 90v40l-45.333-26.667ZM250.001 63.333l-45.334-26.666v426.666L250.001 490V63.333Z"></path><path fill="#FF5D01" d="m250.001 129.944 45.333-26.667 45.333 26.667-45.333 26.667-45.333-26.667ZM204.667 36.667 250.001 10l45.333 26.667-45.333 26.666-45.334-26.666ZM295.334 63.277l45.333-26.666L386 63.277l-45.333 26.667-45.333-26.667ZM114 223.277l45.333-26.667 45.334 26.667-45.334 26.667L114 223.277ZM250 249.944l-45.333-26.667v53.333L250 249.944Z"></path><path fill="#53C68C" d="m250 63.333 45.333-26.666v120L340.667 130V90L386 63.333V170l-90.667 53.333v240L250 490V316.667L159.333 370V250l45.334-26.667v53.334L250 250V63.333Z"></path><path fill="#B04304" d="M159.333 250 114 223.334v120L159.333 370V250Z"></path></svg><style>@media (prefers-color-scheme: light) { :root { filter: none; } }
@media (prefers-color-scheme: dark) { :root { filter: none; } }
</style></svg>